<svg width="22" height="20" viewBox="0 0 22 20" fill="none" xmlns="http://www.w3.org/2000/svg">
<path fill-rule="evenodd" clip-rule="evenodd" d="M14.6156 8.54499C15.1822 7.14528 13.8063 5.74555 12.4303 6.32191L9.86963 7.39452C9.22097 7.66623 8.70586 8.19024 8.43877 8.8501L7.38437 11.455C6.81781 12.8547 8.19375 14.2544 9.5697 13.6781L12.1304 12.6055C12.779 12.3338 13.2941 11.8098 13.5612 11.1499L14.6156 8.54499ZM12.9766 7.67164C13.1732 7.5893 13.3698 7.78926 13.2888 7.98922L12.2344 10.5941C12.113 10.8941 11.8789 11.1323 11.584 11.2558L9.02336 12.3284C8.82681 12.4107 8.63024 12.2107 8.71118 12.0108L9.76557 9.40587C9.88698 9.10594 10.1211 8.86775 10.416 8.74424L12.9766 7.67164Z" fill="#5E5F60"/>
<path fill-rule="evenodd" clip-rule="evenodd" d="M13.9336 0.0699481C13.164 -1.07304e-05 12.2235 -5.91727e-06 11.0337 1.14951e-07H10.9663C9.77649 -6.03328e-06 8.83602 -1.09624e-05 8.06637 0.0699479C7.27579 0.141809 6.61455 0.290736 5.98959 0.616873C5.82771 0.701355 5.67004 0.793957 5.51717 0.894336C4.92705 1.28184 4.46964 1.78993 4.01318 2.45049C3.5688 3.09356 3.09856 3.9221 2.50366 4.97032L2.46997 5.02968C1.87506 6.07789 1.40482 6.90643 1.07955 7.61946C0.745436 8.35188 0.541596 9.00889 0.506767 9.72254C0.497744 9.9074 0.497744 10.0926 0.506767 10.2775C0.541596 10.9911 0.745436 11.6481 1.07955 12.3805C1.40481 13.0936 1.87505 13.9221 2.46995 14.9703L2.50364 15.0297C3.09855 16.0779 3.56879 16.9064 4.01318 17.5495C4.46964 18.2101 4.92705 18.7182 5.51717 19.1057C5.67004 19.206 5.8277 19.2986 5.98959 19.3831C6.61454 19.7093 7.27579 19.8582 8.06637 19.9301C8.83601 20 9.77646 20 10.9663 20H11.0337C12.2235 20 13.164 20 13.9336 19.9301C14.7242 19.8582 15.3855 19.7093 16.0104 19.3831C16.1723 19.2986 16.33 19.206 16.4828 19.1057C17.0729 18.7182 17.5304 18.2101 17.9868 17.5495C18.4312 16.9065 18.9014 16.0779 19.4963 15.0297L19.53 14.9703C20.1249 13.9221 20.5952 13.0936 20.9205 12.3805C21.2546 11.6481 21.4584 10.9911 21.4932 10.2775C21.5023 10.0926 21.5023 9.9074 21.4932 9.72254C21.4584 9.00889 21.2546 8.35188 20.9205 7.61946C20.5952 6.90643 20.1249 6.07788 19.53 5.02966L19.4963 4.97026C18.9014 3.92207 18.4312 3.09355 17.9868 2.45049C17.5304 1.78993 17.0729 1.28184 16.4828 0.894336C16.33 0.793957 16.1723 0.701356 16.0104 0.616874C15.3855 0.290736 14.7242 0.14181 13.9336 0.0699481ZM6.64453 1.91562C7.04746 1.70535 7.50934 1.58607 8.19408 1.52383C8.8925 1.46034 9.76907 1.45967 11 1.45967C12.2309 1.45967 13.1075 1.46034 13.8059 1.52383C14.4907 1.58607 14.9525 1.70535 15.3555 1.91562C15.4751 1.97807 15.5917 2.04651 15.7046 2.1207C16.0851 2.37054 16.4176 2.71781 16.813 3.28993C17.2162 3.8735 17.6551 4.64541 18.2705 5.72984C18.886 6.81427 19.3237 7.58685 19.6189 8.23389C19.9083 8.86826 20.0377 9.3348 20.0601 9.79492C20.0668 9.93156 20.0668 10.0684 20.0601 10.2051C20.0377 10.6652 19.9083 11.1317 19.6189 11.7661C19.3237 12.4132 18.886 13.1857 18.2705 14.2702C17.6551 15.3546 17.2162 16.1265 16.813 16.7101C16.4176 17.2822 16.0851 17.6295 15.7046 17.8793C15.5917 17.9535 15.4751 18.0219 15.3555 18.0844C14.9525 18.2947 14.4907 18.4139 13.8059 18.4762C13.1075 18.5397 12.2309 18.5403 11 18.5403C9.76907 18.5403 8.8925 18.5397 8.19408 18.4762C7.50933 18.4139 7.04746 18.2947 6.64453 18.0844C6.52488 18.0219 6.40834 17.9535 6.29535 17.8793C5.91488 17.6295 5.5824 17.2822 5.18704 16.7101C4.78378 16.1265 4.34492 15.3546 3.72946 14.2702C3.114 13.1857 2.67628 12.4132 2.38112 11.7661C2.09173 11.1317 1.96234 10.6652 1.93989 10.2051C1.93322 10.0684 1.93322 9.93155 1.93989 9.79492C1.96234 9.3348 2.09173 8.86826 2.38112 8.23389C2.67628 7.58685 3.114 6.81427 3.72946 5.72984C4.34492 4.64541 4.78378 3.87349 5.18704 3.28993C5.5824 2.71781 5.91488 2.37054 6.29535 2.1207C6.40834 2.04651 6.52488 1.97807 6.64453 1.91562Z" fill="#5E5F60"/>
</svg>
