<svg width="16" height="20" viewBox="0 0 16 20" fill="none" xmlns="http://www.w3.org/2000/svg">
<path fill-rule="evenodd" clip-rule="evenodd" d="M7.84338 1.23408e-05C6.19215 -0.000254157 5.18453 -0.000416724 4.345 0.279336C2.65096 0.843834 1.32281 2.20594 0.772378 3.94328C0.499597 4.80427 0.499756 5.83765 0.500016 7.53109L0.500032 15.0572C0.500026 15.98 0.50002 16.7175 0.543639 17.2854C0.586619 17.845 0.678033 18.3757 0.955052 18.7969C1.51093 19.642 2.47973 20.099 3.46718 19.9819C3.95927 19.9235 4.41172 19.6492 4.85397 19.3185C5.3028 18.9829 5.84878 18.5029 6.53192 17.9024L6.5569 17.8804C7.2254 17.2928 7.41569 17.1418 7.59699 17.0761C7.85776 16.9816 8.14224 16.9816 8.40301 17.0761C8.58431 17.1418 8.7746 17.2928 9.4431 17.8804L9.46807 17.9024C10.1512 18.5029 10.6972 18.9829 11.146 19.3185C11.5883 19.6492 12.0407 19.9235 12.5328 19.9819C13.5203 20.099 14.4891 19.6421 15.0449 18.7969C15.322 18.3757 15.4134 17.845 15.4564 17.2854C15.5 16.7175 15.5 15.98 15.5 15.0573L15.5 7.5311C15.5002 5.83766 15.5004 4.80428 15.2276 3.94328C14.6772 2.20594 13.349 0.843834 11.655 0.279336C10.8155 -0.000416724 9.80785 -0.000254157 8.15662 1.23408e-05H7.84338ZM4.79357 1.69519C5.38555 1.49792 6.14228 1.48874 8 1.48874C9.85772 1.48874 10.6145 1.49792 11.2064 1.69519C12.4585 2.11242 13.4402 3.1192 13.8471 4.40332C14.0394 5.01043 14.0484 5.7865 14.0484 7.69171V15.0235C14.0484 15.9877 14.0478 16.6661 14.0092 17.1685C13.9695 17.686 13.8954 17.8824 13.8415 17.9644C13.5889 18.3486 13.1485 18.5563 12.6997 18.503C12.6039 18.4917 12.4103 18.4215 12.0013 18.1156C11.6043 17.8187 11.1016 17.3776 10.3878 16.7501L10.2918 16.6656C9.76717 16.2036 9.35805 15.8433 8.88662 15.6725C8.31292 15.4646 7.68708 15.4646 7.11338 15.6725C6.64195 15.8433 6.23284 16.2036 5.70822 16.6656L5.6122 16.7501C4.89839 17.3776 4.39574 17.8187 3.99874 18.1156C3.58972 18.4215 3.3961 18.4917 3.30034 18.503C2.8515 18.5563 2.41114 18.3486 2.15847 17.9644C2.10456 17.8824 2.03051 17.686 1.99076 17.1685C1.95218 16.6661 1.95164 15.9877 1.95164 15.0235V7.69171C1.95164 5.7865 1.96059 5.01043 2.15294 4.40332C2.55978 3.1192 3.54145 2.11242 4.79357 1.69519Z" fill="#5E5F60"/>
</svg>
