<svg width="20" height="20" viewBox="0 0 20 20" fill="none" xmlns="http://www.w3.org/2000/svg">
<path fill-rule="evenodd" clip-rule="evenodd" d="M8.66665 0C3.88019 0 0 3.88019 0 8.66665C0 13.4531 3.88019 17.3333 8.66665 17.3333C13.4531 17.3333 17.3333 13.4531 17.3333 8.66665C17.3333 3.88019 13.4531 0 8.66665 0ZM1.33333 8.66665C1.33333 4.61657 4.61657 1.33333 8.66665 1.33333C12.7167 1.33333 16 4.61657 16 8.66665C16 12.7167 12.7167 16 8.66665 16C4.61657 16 1.33333 12.7167 1.33333 8.66665Z" fill="white"/>
<path d="M16.2492 15.3064C15.9889 15.0461 15.5668 15.0461 15.3064 15.3064C15.0461 15.5668 15.0461 15.9889 15.3064 16.2492L18.8619 19.8047C19.1222 20.0651 19.5443 20.0651 19.8047 19.8047C20.065 19.5444 20.065 19.1223 19.8047 18.8619L16.2492 15.3064Z" fill="white"/>
</svg>
